{"title":"Beauty.And.The.Briefcase.2010.720p.BRRip.x264.Feel-Free ","uid":6163983,"size":1947081921,"categoryP":"video","categoryS":"hd___movies","magnet":"?xt=urn:btih:a639e78eede9fc0c08c040e174526a9b69480fe4&amp;dn=Beauty.And.The.Briefcase.2010.720p.BRRip.x264.Feel-Free+&amp;tr=udp%3A%2F%2Ftracker.openbittorrent.com%3A80&amp;tr=udp%3A%2F%2Fopen.demonii.com%3A1337&amp;tr=udp%3A%2F%2Ftracker.coppersurfer.tk%3A6969&amp;tr=udp%3A%2F%2Fexodus.desync.com%3A6969","seeders":2,"leechers":1,"uploader":".BONE.","files":12,"time":1297322938,"description":"Genre:Comedy | Romance\nLanguage:English\n\nIMDb: http://www.imdb.com/title/tt1493842/\n\nSource:BluRay.x264-THUGLiNE\nSubtitles:Romana\n\n\nFormat : MPEG-4\nFormat profile : Base Media\nCodec ID : isom\nFile size : 1.80 GiB\nDuration : 1h 26mn\nOverall bit rate : 2 984 Kbps\n\nVideo\nFormat settings, CABAC : Yes\nFormat settings, ReFrames : 3 frames\nCodec ID : avc1\nCodec ID/Info : Advanced Video Coding\nDuration : 1h 26mn\nBit rate mode : Variable\nBit rate : 2 546 Kbps\nMaximum bit rate : 9 799 Kbps\nWidth : 1 280 pixels\nHeight : 720 pixels\nDisplay aspect ratio : 16:9\nFrame rate mode : Constant\nFrame rate : 23.976 fps\nColor space : YUV\nChroma subsampling : 4:2:0\nBit depth : 8 bits\nScan type : Progressive\nBits/(Pixel*Frame) : 0.115\nStream size : 1.53 GiB (85%)\nWriting library : x264\n\n\nAudio\nID : 2\nFormat : AAC\nFormat/Info : Advanced Audio Codec\nFormat version : Version 4\nFormat profile : LC\nFormat settings, SBR : No\nCodec ID : 40\nDuration : 1h 26mn\nBit rate mode : Variable\nBit rate : 444 Kbps\nMaximum bit rate : 518 Kbps\nChannel(s) : 6 channels\nChannel positions : Front: L C R, Side: L R, LFE\nSampling rate : 48.0 KHz\nStream size : 275 MiB (15%)\n\n\nPlot:\nA freelance writer looking for romance sells a story to Cosmopolitan magazine about finding love in the workplace and goes undercover at a Finance Company\n &lt;a href=&quot;\nhttp://rapidhdd.com/images/350051vlcsnap-00001.png&quot; rel=&quot;nofollow&quot; target=&quot;_NEW&quot;&gt;\nhttp://rapidhdd.com/images/350051vlcsnap-00001.png&lt;/a&gt;\n &lt;a href=&quot;\nhttp://www.rapidhdd.com/images/469681vlcsnap-00003.png&quot; rel=&quot;nofollow&quot; target=&quot;_NEW&quot;&gt;\nhttp://www.rapidhdd.com/images/469681vlcsnap-00003.png&lt;/a&gt;\n &lt;a href=&quot;\nhttp://www.rapidhdd.com/images/239118vlcsnap-00002.png&quot; rel=&quot;nofollow&quot; target=&quot;_NEW&quot;&gt;\nhttp://www.rapidhdd.com/images/239118vlcsnap-00002.png&lt;/a&gt;\n &lt;a href=&quot;\nhttp://www.rapidhdd.com/images/84422vlcsnap-00005.png&quot; rel=&quot;nofollow&quot; target=&quot;_NEW&quot;&gt;\nhttp://www.rapidhdd.com/images/84422vlcsnap-00005.png&lt;/a&gt;\n &lt;a href=&quot;\nhttp://www.rapidhdd.com/images/207942vlcsnap-00004.png&quot; rel=&quot;nofollow&quot; target=&quot;_NEW&quot;&gt;\nhttp://www.rapidhdd.com/images/207942vlcsnap-00004.png&lt;/a&gt;\n &lt;a href=&quot;\nhttp://www.rapidhdd.com/images/19148vlcsnap-00006.png&quot; rel=&quot;nofollow&quot; target=&quot;_NEW&quot;&gt;\nhttp://www.rapidhdd.com/images/19148vlcsnap-00006.png&lt;/a&gt;\n &lt;a href=&quot;\nhttp://www.rapidhdd.com/images/290962vlcsnap-00007.png&quot; rel=&quot;nofollow&quot; target=&quot;_NEW&quot;&gt;\nhttp://www.rapidhdd.com/images/290962vlcsnap-00007.png&lt;/a&gt;","torrent":{"xt":"urn:btih:a639e78eede9fc0c08c040e174526a9b69480fe4","amp;dn":"Beauty.And.The.Briefcase.2010.720p.BRRip.x264.Feel-Free+","amp;tr":["udp%3A%2F%2Ftracker.openbittorrent.com%3A80","udp%3A%2F%2Fopen.demonii.com%3A1337","udp%3A%2F%2Ftracker.coppersurfer.tk%3A6969","udp%3A%2F%2Fexodus.desync.com%3A6969"],"infoHash":"a639e78eede9fc0c08c040e174526a9b69480fe4","infoHashBuffer":{"type":"Buffer","data":[166,57,231,142,237,233,252,12,8,192,64,225,116,82,106,155,105,72,15,228]},"announce":[],"urlList":[]}}